<svg width="120" height="120" viewBox="0 0 120 120" fill="none" xmlns="http://www.w3.org/2000/svg">
<circle cx="60" cy="60" r="60" fill="#030086"/>
<circle cx="60" cy="60" r="35" fill="white"/>
<path d="M69.2832 72H51.7402V68.5195L60.0195 59.6953C61.1562 58.4531 61.9941 57.3691 62.5332 56.4434C63.084 55.5176 63.3594 54.6387 63.3594 53.8066C63.3594 52.6699 63.0723 51.7793 62.498 51.1348C61.9238 50.4785 61.1035 50.1504 60.0371 50.1504C58.8887 50.1504 57.9805 50.5488 57.3125 51.3457C56.6562 52.1309 56.3281 53.168 56.3281 54.457H51.2305C51.2305 52.8984 51.5996 51.4746 52.3379 50.1855C53.0879 48.8965 54.1426 47.8887 55.502 47.1621C56.8613 46.4238 58.4023 46.0547 60.125 46.0547C62.7617 46.0547 64.8066 46.6875 66.2598 47.9531C67.7246 49.2188 68.457 51.0059 68.457 53.3145C68.457 54.5801 68.1289 55.8691 67.4727 57.1816C66.8164 58.4941 65.6914 60.0234 64.0977 61.7695L58.2793 67.9043H69.2832V72Z" fill="#030086"/>
</svg>
