<svg width="120" height="120" viewBox="0 0 120 120" fill="none" xmlns="http://www.w3.org/2000/svg">
<circle cx="60" cy="60" r="60" fill="#030086"/>
<circle cx="60" cy="60" r="35" fill="white"/>
<path d="M56.9082 56.9531H59.6152C60.9043 56.9531 61.8594 56.6309 62.4805 55.9863C63.1016 55.3418 63.4121 54.4863 63.4121 53.4199C63.4121 52.3887 63.1016 51.5859 62.4805 51.0117C61.8711 50.4375 61.0273 50.1504 59.9492 50.1504C58.9766 50.1504 58.1621 50.4199 57.5059 50.959C56.8496 51.4863 56.5215 52.1777 56.5215 53.0332H51.4414C51.4414 51.6973 51.7988 50.502 52.5137 49.4473C53.2402 48.3809 54.248 47.5488 55.5371 46.9512C56.8379 46.3535 58.2676 46.0547 59.8262 46.0547C62.5332 46.0547 64.6543 46.7051 66.1895 48.0059C67.7246 49.2949 68.4922 51.0762 68.4922 53.3496C68.4922 54.5215 68.1348 55.5996 67.4199 56.584C66.7051 57.5684 65.7676 58.3242 64.6074 58.8516C66.0488 59.3672 67.1211 60.1406 67.8242 61.1719C68.5391 62.2031 68.8965 63.4219 68.8965 64.8281C68.8965 67.1016 68.0645 68.9238 66.4004 70.2949C64.748 71.666 62.5566 72.3516 59.8262 72.3516C57.2715 72.3516 55.1797 71.6777 53.5508 70.3301C51.9336 68.9824 51.125 67.2012 51.125 64.9863H56.2051C56.2051 65.9473 56.5625 66.7324 57.2773 67.3418C58.0039 67.9512 58.8945 68.2559 59.9492 68.2559C61.1562 68.2559 62.0996 67.9395 62.7793 67.3066C63.4707 66.6621 63.8164 65.8125 63.8164 64.7578C63.8164 62.2031 62.4102 60.9258 59.5977 60.9258H56.9082V56.9531Z" fill="#030086"/>
</svg>
