<svg width="120" height="120" viewBox="0 0 120 120" fill="none" xmlns="http://www.w3.org/2000/svg">
<circle cx="60" cy="60" r="60" fill="#030086"/>
<circle cx="60" cy="60" r="35" fill="white"/>
<path d="M52.4961 59.4141L53.9727 46.4062H68.3164V50.6426H58.1387L57.5059 56.1445C58.7129 55.5 59.9961 55.1777 61.3555 55.1777C63.793 55.1777 65.7031 55.9336 67.0859 57.4453C68.4688 58.957 69.1602 61.0723 69.1602 63.791C69.1602 65.4434 68.8086 66.9258 68.1055 68.2383C67.4141 69.5391 66.418 70.5527 65.1172 71.2793C63.8164 71.9941 62.2812 72.3516 60.5117 72.3516C58.9648 72.3516 57.5293 72.041 56.2051 71.4199C54.8809 70.7871 53.832 69.9023 53.0586 68.7656C52.2969 67.6289 51.8926 66.334 51.8457 64.8809H56.873C56.9785 65.9473 57.3477 66.7793 57.9805 67.377C58.625 67.9629 59.4629 68.2559 60.4941 68.2559C61.6426 68.2559 62.5273 67.8457 63.1484 67.0254C63.7695 66.1934 64.0801 65.0215 64.0801 63.5098C64.0801 62.0566 63.7227 60.9434 63.0078 60.1699C62.293 59.3965 61.2793 59.0098 59.9668 59.0098C58.7598 59.0098 57.7812 59.3262 57.0312 59.959L56.5391 60.416L52.4961 59.4141Z" fill="#030086"/>
</svg>
