<svg width="120" height="120" viewBox="0 0 120 120" fill="none" xmlns="http://www.w3.org/2000/svg">
<circle cx="60" cy="60" r="60" fill="#030086"/>
<circle cx="60" cy="60" r="35" fill="white"/>
<path d="M63.623 61.7695C62.2988 63.0703 60.752 63.7207 58.9824 63.7207C56.7207 63.7207 54.9102 62.9473 53.5508 61.4004C52.1914 59.8418 51.5117 57.7441 51.5117 55.1074C51.5117 53.4316 51.875 51.8965 52.6016 50.502C53.3398 49.0957 54.3652 48.0059 55.6777 47.2324C56.9902 46.4473 58.4668 46.0547 60.1074 46.0547C61.7949 46.0547 63.2949 46.4766 64.6074 47.3203C65.9199 48.1641 66.9395 49.377 67.666 50.959C68.3926 52.541 68.7617 54.3516 68.7734 56.3906V58.2715C68.7734 62.5371 67.7129 65.8887 65.5918 68.3262C63.4707 70.7637 60.4648 72.0645 56.5742 72.2285L55.3262 72.2461V68.0098L56.4512 67.9922C60.8691 67.793 63.2598 65.7188 63.623 61.7695ZM60.2305 59.8359C61.0508 59.8359 61.7539 59.625 62.3398 59.2031C62.9375 58.7812 63.3887 58.2715 63.6934 57.6738V55.582C63.6934 53.8594 63.3652 52.5234 62.709 51.5742C62.0527 50.625 61.1738 50.1504 60.0723 50.1504C59.0527 50.1504 58.2148 50.6191 57.5586 51.5566C56.9023 52.4824 56.5742 53.6484 56.5742 55.0547C56.5742 56.4492 56.8906 57.5977 57.5234 58.5C58.168 59.3906 59.0703 59.8359 60.2305 59.8359Z" fill="#030086"/>
</svg>
